<svg width="18" height="20" viewBox="0 0 18 20" fill="none" xmlns="http://www.w3.org/2000/svg">
<path d="M1.11662 14.6967C2.02563 16.0853 3.1989 17.1706 4.66052 17.9431L4.19324 18.8272L4.66053 17.9431C5.60502 18.4423 6.60717 18.7638 7.66531 18.8997L1.11662 14.6967ZM1.11662 14.6967C1.90514 13.2021 3.09239 12.2675 4.7448 11.8524L4.7449 11.8524C4.79079 11.8408 4.84415 11.8301 4.92118 11.8159C4.93295 11.8138 4.94571 11.8114 4.95928 11.8089C5.02179 11.7975 5.10141 11.783 5.17929 11.7665C5.19127 11.7721 5.21305 11.7837 5.24562 11.8067C5.24567 11.8067 5.24571 11.8067 5.24575 11.8068L5.82226 10.9897C6.85253 11.7168 8.00417 12.0414 9.26057 11.9864L1.11662 14.6967ZM13.0863 18.0419C14.6165 17.2888 15.8393 16.183 16.7906 14.7496C16.7907 14.7496 16.7907 14.7496 16.7907 14.7496L13.0863 18.0419ZM13.0863 18.0419C11.9653 18.5936 10.7853 18.9056 9.53946 18.9747L9.53884 18.9747C9.46166 18.979 9.39467 18.9903 9.34745 18.9999L8.54204 19C8.4544 18.9901 8.36929 18.9808 8.28574 18.9716C8.0741 18.9484 7.87252 18.9263 7.66542 18.8997L13.0863 18.0419ZM10.5078 1.30168L10.5077 1.30166C10.3546 1.23845 10.1732 1.18949 9.93767 1.13887C9.87161 1.12467 9.79089 1.10842 9.70294 1.09072C9.56644 1.06324 9.41252 1.03225 9.26898 1H8.73476C8.69471 1.00883 8.64564 1.0177 8.59103 1.0232L10.5078 1.30168ZM10.5078 1.30168C11.9902 1.91333 12.8513 2.97306 13.1259 4.55083C13.4232 6.2596 12.5816 8.00911 11.0305 8.84138L11.0305 8.84138M10.5078 1.30168L11.0305 8.84138M11.0305 8.84138C9.47998 9.67334 8.01061 9.59155 6.56739 8.58728M11.0305 8.84138L6.56739 8.58728M6.56739 8.58728C5.42479 7.79216 4.84045 6.69132 4.81433 5.29512L6.56739 8.58728ZM4.81433 5.2951C4.78541 3.74696 5.42722 2.56132 6.73938 1.67118L4.81433 5.2951ZM6.73944 1.67115C7.28227 1.30298 7.89936 1.09311 8.59069 1.02324L6.73944 1.67115Z" stroke="#0D1E70" stroke-width="2"/>
</svg>
